<?xml version="1.0" encoding="UTF-8"?>
<!DOCTYPE svg PUBLIC "-//W3C//DTD SVG 1.1//EN" "http://www.w3.org/Graphics/SVG/1.1/DTD/svg11.dtd">
<!-- Creator: CorelDRAW -->
<svg xmlns="http://www.w3.org/2000/svg" xml:space="preserve" width="101.936mm" height="64.9127mm" style="shape-rendering:geometricPrecision; text-rendering:geometricPrecision; image-rendering:optimizeQuality; fill-rule:evenodd; clip-rule:evenodd"
viewBox="0 0 322.629 205.45"
 xmlns:xlink="http://www.w3.org/1999/xlink">
 <defs>
  <style type="text/css">
   <![CDATA[
    .str0 {stroke:#1F1A17;stroke-width:2.23323}
    .fil2 {fill:none}
    .fil0 {fill:#DA251D}
    .fil1 {fill:#B63A34}
    .fil3 {fill:#1F1A17;fill-rule:nonzero}
   ]]>
  </style>
 </defs>
 <g id="Layer_x0020_1">
  <metadata id="CorelCorpID_0Corel-Layer"/>
  <path class="fil0 str0" d="M199.466 136.817c3.71193,-53.64 -31.0567,-130.332 -104.326,-127.824 85.6386,-33.6083 158.128,47.1587 159.221,110.281l28.3674 -8.08724 -55.6954 65.7709 -57.043 -31.8938 29.4767 -8.24676z"/>
  <path class="fil1 str0" d="M75.0757 93.5714c-3.02955,43.7826 25.3492,106.381 85.154,104.334 -69.9003,27.4321 -129.068,-38.4923 -129.96,-90.0145l-23.154 6.60127 45.4597 -53.684 46.5602 26.0325 -24.0598 6.73103z"/>
  <line class="fil2" x1="144.026" y1="102.472" x2="0.638067" y2= "143.397" />
  <path class="fil3" d="M144.207 103.107c0.855819,-0.341505 0.379802,-1.56668 -0.361128,-1.27075l-1.27075 0.36271c-0.855819,0.341821 -0.381384,1.56763 0.361128,1.27075l1.27075 -0.36271zm-143.75 39.6538c-0.855503,0.341821 -0.381384,1.56763 0.361444,1.27075l1.03528 -0.295929c0.855819,-0.341505 0.380118,-1.56668 -0.361128,-1.27075l-1.03559 0.295929zm4.85038 -1.38628c-0.855819,0.341821 -0.381384,1.56763 0.361128,1.27075l1.2717 -0.362394c0.855503,-0.341821 0.379802,-1.567 -0.361128,-1.27107l-1.2717 0.36271zm5.08618 -1.45211c-0.855503,0.341821 -0.381384,1.56763 0.361128,1.27075l1.27075 -0.36271c0.855819,-0.341505 0.380118,-1.56668 -0.361128,-1.27075l-1.27075 0.36271zm5.08491 -1.45147c-0.855819,0.341821 -0.381384,1.56763 0.361128,1.27107l1.27075 -0.36271c0.855819,-0.341821 0.379802,-1.567 -0.361128,-1.27075l-1.27075 0.362394zm5.08459 -1.45116c-0.855503,0.341505 -0.381384,1.56731 0.361128,1.27075l1.27075 -0.36271c0.855819,-0.341821 0.380118,-1.56668 -0.361128,-1.27075l-1.27075 0.36271zm5.08396 -1.45147c-0.855503,0.341505 -0.381384,1.56763 0.361128,1.27075l1.27107 -0.36271c0.855503,-0.341505 0.379802,-1.56668 -0.361444,-1.27075l-1.27075 0.36271zm5.08396 -1.45147c-0.855503,0.341821 -0.381384,1.56763 0.361128,1.27075l1.27107 -0.362394c0.855503,-0.341821 0.379802,-1.567 -0.361128,-1.27107l-1.27107 0.36271zm5.08428 -1.45147c-0.855819,0.341821 -0.381701,1.56763 0.361128,1.27107l1.27075 -0.36271c0.855503,-0.341821 0.379802,-1.567 -0.361128,-1.27075l-1.27075 0.362394zm5.08396 -1.45116c-0.855819,0.341505 -0.381384,1.56731 0.361128,1.27075l1.27075 -0.36271c0.855819,-0.341821 0.379802,-1.56668 -0.361128,-1.27075l-1.27075 0.36271zm5.08396 -1.45147c-0.855819,0.341505 -0.381384,1.56763 0.361128,1.27075l1.27075 -0.36271c0.855819,-0.341505 0.379802,-1.56668 -0.361128,-1.27075l-1.27075 0.36271zm5.08396 -1.45147c-0.855819,0.341821 -0.381384,1.56763 0.361128,1.27075l1.27075 -0.362394c0.855819,-0.341821 0.379802,-1.567 -0.361128,-1.27107l-1.27075 0.36271zm5.08396 -1.45147c-0.855819,0.341821 -0.381384,1.56763 0.361128,1.27107l1.27075 -0.36271c0.855819,-0.341821 0.380118,-1.567 -0.361128,-1.27075l-1.27075 0.362394zm5.08396 -1.45053c-0.855819,0.341821 -0.381384,1.56763 0.361128,1.27075l1.27075 -0.36271c0.855819,-0.341505 0.380118,-1.56668 -0.361128,-1.27075l-1.27075 0.36271zm5.08396 -1.45053c-0.855503,0.341505 -0.381384,1.56731 0.361128,1.27075l1.27107 -0.36271c0.855503,-0.341821 0.379802,-1.56668 -0.361444,-1.27075l-1.27075 0.36271zm5.08396 -1.45084c-0.855503,0.341821 -0.381384,1.56763 0.361128,1.27107l1.27107 -0.36271c0.855503,-0.341821 0.379802,-1.567 -0.361128,-1.27107l-1.27107 0.36271zm5.08396 -1.45053c-0.855503,0.341821 -0.381384,1.56763 0.361444,1.27075l1.27075 -0.36271c0.855503,-0.341505 0.379802,-1.56668 -0.361128,-1.27075l-1.27107 0.36271zm5.08428 -1.45053c-0.855819,0.341505 -0.381384,1.56731 0.361128,1.27075l1.27075 -0.36271c0.855819,-0.341821 0.379802,-1.56668 -0.361128,-1.27075l-1.27075 0.36271zm5.08396 -1.45084c-0.855819,0.341821 -0.381384,1.56763 0.361128,1.27075l1.27075 -0.362394c0.855819,-0.341821 0.379802,-1.567 -0.361128,-1.27107l-1.27075 0.36271zm5.08396 -1.45053c-0.855819,0.341505 -0.381384,1.56763 0.361128,1.27075l1.27075 -0.36271c0.855819,-0.341505 0.379802,-1.56668 -0.361128,-1.27075l-1.27075 0.36271zm5.08396 -1.45084c-0.855819,0.341821 -0.381384,1.56763 0.361128,1.27107l1.27075 -0.36271c0.855819,-0.341821 0.380118,-1.567 -0.361128,-1.27075l-1.27075 0.362394zm5.08396 -1.45053c-0.855819,0.341821 -0.381384,1.56763 0.361128,1.27075l1.27075 -0.36271c0.855819,-0.341505 0.380118,-1.56668 -0.361128,-1.27075l-1.27075 0.36271zm5.08396 -1.45053c-0.855503,0.341505 -0.381384,1.56731 0.361128,1.27075l1.27075 -0.36271c0.855819,-0.341821 0.380118,-1.56668 -0.361128,-1.27075l-1.27075 0.36271zm5.08396 -1.45084c-0.855503,0.341821 -0.381384,1.56763 0.361128,1.27107l1.27107 -0.36271c0.855503,-0.341821 0.379802,-1.567 -0.361128,-1.27107l-1.27107 0.36271zm5.08333 -1.45053c-0.855819,0.341821 -0.381384,1.56763 0.361128,1.27075l1.27075 -0.36271c0.855819,-0.341505 0.380118,-1.56668 -0.361128,-1.27075l-1.27075 0.36271zm5.08333 -1.45053c-0.855819,0.341505 -0.381384,1.56731 0.361128,1.27075l1.27075 -0.36271c0.855819,-0.341821 0.379802,-1.56668 -0.361128,-1.27075l-1.27075 0.36271zm5.08333 -1.45084c-0.855819,0.341821 -0.381384,1.56763 0.361128,1.27075l1.27075 -0.362394c0.855819,-0.341821 0.379802,-1.567 -0.361128,-1.27107l-1.27075 0.36271zm5.08301 -1.45053c-0.855503,0.341505 -0.381384,1.56763 0.361128,1.27075l1.27107 -0.36271c0.855503,-0.341505 0.379802,-1.56668 -0.361128,-1.27075l-1.27107 0.36271zm5.08333 -1.45084c-0.855819,0.341821 -0.381384,1.56763 0.361128,1.27107l1.27075 -0.36271c0.855819,-0.341821 0.380118,-1.567 -0.361128,-1.27075l-1.27075 0.362394z"/>
  <line class="fil2" x1="321.992" y1="51.8284" x2="257.874" y2= "70.1278" />
  <path class="fil3" d="M322.172 52.4636c0.855503,-0.341505 0.379802,-1.56668 -0.361128,-1.27075l-1.27075 0.36271c-0.855819,0.341821 -0.381384,1.56763 0.361128,1.27075l1.27075 -0.36271zm-62.64 16.5027c-0.855819,0.341821 -0.381384,1.56763 0.361128,1.27075l1.2717 -0.36271c0.855503,-0.341505 0.379802,-1.56668 -0.361128,-1.27075l-1.2717 0.36271zm5.08554 -1.45147c-0.855819,0.341821 -0.381384,1.56763 0.361128,1.27107l1.27075 -0.36271c0.855819,-0.341821 0.380118,-1.567 -0.361128,-1.27075l-1.27075 0.362394zm5.08459 -1.45116c-0.855503,0.341505 -0.381384,1.56731 0.361444,1.27075l1.27075 -0.36271c0.855503,-0.341821 0.379802,-1.56668 -0.361128,-1.27075l-1.27107 0.36271zm5.08428 -1.45147c-0.855819,0.341505 -0.381384,1.56763 0.361128,1.27075l1.27075 -0.36271c0.855503,-0.341505 0.379802,-1.56668 -0.361128,-1.27075l-1.27075 0.36271zm5.08396 -1.45147c-0.855819,0.341821 -0.381384,1.56763 0.361128,1.27075l1.27075 -0.36271c0.855819,-0.341505 0.379802,-1.56668 -0.361128,-1.27075l-1.27075 0.36271zm5.08396 -1.45053c-0.855819,0.341505 -0.381384,1.56731 0.361128,1.27075l1.27075 -0.36271c0.855819,-0.341505 0.379802,-1.56668 -0.361128,-1.27075l-1.27075 0.36271zm5.08396 -1.45084c-0.855819,0.341821 -0.381384,1.56763 0.361128,1.27107l1.27075 -0.36271c0.855819,-0.341821 0.380118,-1.567 -0.361128,-1.27075l-1.27075 0.362394zm5.08396 -1.45053c-0.855819,0.341821 -0.381384,1.56763 0.361128,1.27075l1.27075 -0.36271c0.855819,-0.341505 0.380118,-1.56668 -0.361128,-1.27075l-1.27075 0.36271zm5.08396 -1.45053c-0.855503,0.341505 -0.381384,1.56731 0.361128,1.27075l1.27075 -0.36271c0.855819,-0.341821 0.380118,-1.56668 -0.361128,-1.27075l-1.27075 0.36271zm5.08396 -1.45084c-0.855503,0.341821 -0.381384,1.56763 0.361128,1.27075l1.27107 -0.362394c0.855503,-0.341821 0.379802,-1.567 -0.361444,-1.27107l-1.27075 0.36271zm5.08333 -1.45053c-0.855819,0.341505 -0.381384,1.56763 0.361128,1.27075l1.27075 -0.36271c0.855819,-0.341505 0.380118,-1.56668 -0.361128,-1.27075l-1.27075 0.36271zm5.08333 -1.45053c-0.855819,0.341505 -0.381384,1.56731 0.361128,1.27075l1.27075 -0.36271c0.855819,-0.341821 0.379802,-1.56668 -0.361128,-1.27075l-1.27075 0.36271z"/>
 </g>
</svg>
